<?xml version="1.0" encoding="UTF-8"?>
<svg width="128pt" height="128pt" version="1.1" viewBox="0 0 128 128" xmlns="http://www.w3.org/2000/svg">
 <path d="m78.914 57.711-1.4531 6.2578v-0.003906c3.6055 0.34375 7.207-0.69141 10.082-2.8945l-4.5391-4.5391c-1.2383 0.73828-2.6445 1.1445-4.0898 1.1797z"/>
 <path d="m40.215 122 38.484-9.1641v-20.297l-34.102 19.234z"/>
 <path d="m15.164 49.301-9.1641 38.484 10.227-4.3828 19.234-34.102z"/>
 <path d="m70.297 48.922c0.054687-1.3867 0.46094-2.7344 1.1719-3.9258l-4.5391-4.5391c-1.9258 2.5469-2.9609 5.6523-2.9531 8.8438 0 0.32812 0 0.66016 0.035157 1z"/>
 <path d="m86.465 5.1328c-2.6328 0.003907-5.2617 0.29688-7.832 0.86719l43.367 43.367c2.4023-10.773-0.22656-22.051-7.1367-30.656-6.9102-8.6055-17.359-13.598-28.398-13.578z"/>
 <path d="m54.762 23.648-34.438 61.047 10 10 21.648-21.645c0.82422-0.82031 2.1523-0.82031 2.9766 0 0.82031 0.82422 0.82031 2.1523 0 2.9766l-21.648 21.645 10 10 61.051-34.434c7.5547-4.2734 13.336-11.105 16.301-19.266l-46.625-46.625c-8.1602 2.9648-14.992 8.7461-19.266 16.301zm49.176 25.652c0 6.6914-2.6602 13.113-7.3906 17.844-4.7344 4.7344-11.152 7.3945-17.848 7.3945-6.6914 0-13.113-2.6602-17.844-7.3945-4.7344-4.7305-7.3945-11.152-7.3945-17.844 0-6.6953 2.6602-13.113 7.3945-17.848 4.7305-4.7305 11.152-7.3906 17.844-7.3906 6.6914 0.007812 13.105 2.668 17.84 7.3984 4.7305 4.7344 7.3906 11.148 7.3984 17.84z"/>
 <path d="m78.699 70.332c5.5781 0 10.93-2.2148 14.871-6.1602 3.9453-3.9453 6.1602-9.293 6.1602-14.871s-2.2148-10.93-6.1602-14.871c-3.9414-3.9453-9.293-6.1602-14.871-6.1602s-10.926 2.2148-14.871 6.1602c-3.9453 3.9414-6.1602 9.293-6.1602 14.871 0.007812 5.5742 2.2227 10.922 6.168 14.863 3.9414 3.9453 9.2891 6.1602 14.863 6.168zm13.398-7.6758h0.003906c-3.543 3.5742-8.3711 5.582-13.402 5.5703-1.4375-0.003906-2.8672-0.17187-4.2656-0.49609-0.54688-0.125-1.0195-0.46094-1.3125-0.9375-0.29688-0.47266-0.39062-1.0469-0.26562-1.5898l2.3789-10.242c0.26562-1.1289 1.3945-1.832 2.5234-1.5742 1.418 0.34766 2.9141-0.082031 3.9297-1.1289 0.39453-0.39844 0.92969-0.625 1.4922-0.625 0.5625-0.027343 1.1094 0.19922 1.4922 0.61328l7.4375 7.4375c0.82031 0.82031 0.82031 2.1523 0 2.9727zm-14.023-19.961 2.3828-10.242 0.003907-0.003906c0.125-0.54297 0.46094-1.0156 0.9375-1.3086 0.47266-0.29688 1.043-0.39062 1.5859-0.26172 3.4727 0.81641 6.6406 2.5898 9.1523 5.125 2.5078 2.5312 4.2539 5.7188 5.0352 9.1953 0.25 1.1367-0.46484 2.2578-1.6016 2.5078l-10.277 2.2422 0.003906 0.003906c-0.14844 0.03125-0.30078 0.046875-0.45312 0.046875-0.98047 0-1.832-0.67969-2.0469-1.6367-0.36328-1.5586-1.5781-2.7773-3.1328-3.1445-0.54297-0.125-1.0156-0.46484-1.3125-0.9375-0.29297-0.47266-0.39062-1.043-0.26172-1.5859zm-1.4883 6.6016 0.003906-0.003906c-0.046875-1.0117 0.65234-1.9062 1.6445-2.1055 0.71875-0.15234 1.4609 0.066406 1.9766 0.58594 0.50781 0.51953 0.71875 1.2617 0.55078 1.9688-0.26562 0.94141-1.0977 1.6055-2.0703 1.6602-1.1406-0.054688-2.0469-0.96875-2.0898-2.1094zm-11.254-13.398 0.003907-0.003907c0.82031-0.82031 2.1484-0.82031 2.9688 0l7.4375 7.4375c0.39844 0.39453 0.62109 0.92969 0.62109 1.4922 0 0.55859-0.22266 1.0938-0.62109 1.4883-0.80078 0.78906-1.2539 1.8672-1.25 2.9883 0 0.28906 0.03125 0.57812 0.085937 0.85938 0.23828 1.1289-0.47656 2.2344-1.5977 2.4844l-10.27 2.2422c-0.14844 0.03125-0.30078 0.050781-0.44922 0.050781-0.99219 0-1.8516-0.69141-2.0586-1.6641-0.27734-1.3047-0.42188-2.6367-0.42188-3.9727-0.015625-5.0352 1.9883-9.8672 5.5625-13.41z"/>
 <path d="m86.164 45.457 6.293-1.375c-1.4883-3.8789-4.5352-6.957-8.3984-8.4805l-1.457 6.2656c1.5234 0.80469 2.7695 2.0586 3.5625 3.5898z"/>
</svg>
