<?xml version="1.0" encoding="UTF-8"?>
<svg width="100pt" height="100pt" version="1.1" viewBox="0 0 100 100" xmlns="http://www.w3.org/2000/svg">
 <path d="m28.59 29.219c-1.3906 0-2.5195 1.1289-2.5195 2.5195s1.1289 2.5195 2.5195 2.5195h42.824c1.3906 0 2.5195-1.1289 2.5195-2.5195s-1.1289-2.5195-2.5195-2.5195zm0 18.262c-1.3906 0-2.5195 1.1289-2.5195 2.5195s1.1289 2.5195 2.5195 2.5195h42.824c1.3906 0 2.5195-1.1289 2.5195-2.5195s-1.1289-2.5195-2.5195-2.5195zm0 18.262c-1.3906 0-2.5195 1.1289-2.5195 2.5195s1.1289 2.5195 2.5195 2.5195h42.824c1.3906 0 2.5195-1.1289 2.5195-2.5195s-1.1289-2.5195-2.5195-2.5195z"/>
</svg>
