<?xml version="1.0" encoding="UTF-8"?>
<svg width="128pt" height="128pt" version="1.1" viewBox="0 0 128 128" xmlns="http://www.w3.org/2000/svg">
 <path d="m64.004 2.6523c-16.273-0.003906-31.879 6.457-43.387 17.965-11.508 11.504-17.973 27.109-17.977 43.383 0 16.27 6.4648 31.879 17.969 43.383 11.504 11.508 27.109 17.973 43.383 17.977 16.273 0 31.879-6.4648 43.387-17.973 11.508-11.504 17.969-27.109 17.969-43.383-0.015625-16.266-6.4844-31.859-17.984-43.359-11.5-11.504-27.094-17.973-43.359-17.992zm-57.172 61.352c0.019531-15.156 6.0469-29.688 16.766-40.406s25.25-16.746 40.406-16.766v114.34c-15.156-0.015625-29.688-6.043-40.406-16.758-10.719-10.719-16.746-25.25-16.766-40.406z"/>
</svg>
