<?xml version="1.0" encoding="UTF-8"?>
<svg width="1200pt" height="1200pt" version="1.1" viewBox="0 0 1200 1200" xmlns="http://www.w3.org/2000/svg">
 <path d="m769.68 600 283.92-283.92c46.922-46.922 46.922-122.88 0-169.68-46.922-46.801-122.88-46.801-169.68 0l-283.92 283.92-283.92-284.04c-46.922-46.922-122.88-46.922-169.68 0-46.801 46.922-46.801 122.88 0 169.68l283.92 283.92-283.92 283.92c-46.922 46.922-46.922 122.88 0 169.68 46.922 46.801 122.88 46.801 169.68 0l283.92-283.92 283.92 283.92c46.922 46.922 122.88 46.922 169.68 0 46.801-46.922 46.801-122.88 0-169.68l-283.92-283.92z" fill="#2aff73"/>
</svg>
