<?xml version="1.0" encoding="UTF-8"?>
<svg width="1200pt" height="1200pt" version="1.1" viewBox="0 0 1200 1200" xmlns="http://www.w3.org/2000/svg">
 <path d="m9.3594 713.64h694.2c3.8242 0.035156 7.2539 2.3633 8.6953 5.9023 1.4414 3.5391 0.61719 7.6016-2.0938 10.297l-366.6 359.28c-2.8008 2.707-3.6328 6.8711-2.0859 10.449 1.5508 3.5781 5.1523 5.8203 9.0469 5.6289l343.44-9.4805c2.4414-0.015625 4.7773-1.0078 6.4805-2.7578l496.44-484.68c1.8711-1.8086 2.9258-4.3008 2.9258-6.9023 0-2.6016-1.0547-5.0898-2.9258-6.8984l-493.8-496.92c-1.8867-1.8398-4.4414-2.8359-7.0781-2.7578l-313.2 5.3984c-3.7734 0.082031-7.1367 2.3906-8.5664 5.8789-1.4336 3.4883-0.66016 7.4961 1.9648 10.203l331.8 341.64c2.6602 2.6758 3.4531 6.6875 2.0117 10.176-1.4414 3.4883-4.8359 5.7656-8.6133 5.7812h-681c-3.25-0.058594-6.4961-0.30078-9.7188-0.71875-2.6797-0.38281-5.3945 0.41406-7.4453 2.1875-2.0469 1.7734-3.2266 4.3438-3.2344 7.0508v221.88c0 2.4805 0.98438 4.8633 2.7422 6.6172 1.7539 1.7539 4.1367 2.7422 6.6172 2.7422z" fill="#2aff73"/>
</svg>
