<?xml version="1.0" encoding="UTF-8"?>
<svg width="1200pt" height="1200pt" version="1.1" viewBox="0 0 1200 1200" xmlns="http://www.w3.org/2000/svg">
 <path d="m665.52 1170h-131.04c-41.168 0-76.195-30.742-81.469-71.516l-9.3164-70.379c-49.922-18.176-95.625-44.582-136.25-78.738l-65.684 27.188c-38.016 15.793-82.172 0.75781-102.67-34.996l-65.461-113.17c-20.496-35.746-11.391-81.484 21.129-106.49l56.379-43.27c-4.5703-25.918-6.8906-52.285-6.8906-78.629s2.3203-52.711 6.8906-78.629l-56.355-43.254c-32.543-25.02-41.648-70.758-21.211-106.41l65.578-113.37c20.461-35.66 64.629-50.707 102.66-34.875l65.637 27.164c40.629-34.152 86.332-60.562 136.25-78.738l9.3281-70.465c5.2617-40.684 40.289-71.426 81.457-71.426h131.04c41.168 0 76.195 30.742 81.469 71.516l9.3164 70.379c49.922 18.176 95.625 44.582 136.25 78.738l65.684-27.188c37.992-15.801 82.16-0.76562 102.67 34.996l65.461 113.17c20.496 35.746 11.391 81.484-21.129 106.49l-56.379 43.27c4.5703 25.918 6.8906 52.285 6.8906 78.629s-2.3203 52.711-6.8906 78.629l56.355 43.254c0.011719 0.007813 0.023438 0.011719 0.023438 0.015626 32.52 25.004 41.625 70.738 21.188 106.39l-65.578 113.37c-20.449 35.66-64.605 50.711-102.66 34.875l-65.637-27.164c-40.629 34.152-86.332 60.562-136.25 78.738l-9.3281 70.465c-5.2617 40.684-40.289 71.426-81.457 71.426zm-352.32-285.48c7.3594 0 14.613 2.707 20.238 7.8594 42.445 38.801 91.781 67.32 146.65 84.75 11.086 3.5195 19.137 13.133 20.66 24.656l11.766 88.918c1.4297 11.039 10.863 19.297 21.973 19.297h131.04c11.109 0 20.543-8.2578 21.961-19.211l11.777-89.004c1.5234-11.523 9.5742-21.137 20.66-24.656 54.867-17.43 104.2-45.949 146.65-84.75 8.5781-7.8516 20.965-10.031 31.711-5.5781l82.91 34.32c10.254 4.2773 22.16 0.22266 27.668-9.4023l65.578-113.37c5.5195-9.6211 3.082-22.066-5.7422-28.859l-71.145-54.605c-9.2578-7.0977-13.547-18.902-11.027-30.281 6.1289-27.707 9.2344-56.172 9.2344-84.602s-3.1055-56.895-9.2344-84.598c-2.5195-11.379 1.7695-23.184 11.027-30.281l71.156-54.605c8.8008-6.7734 11.25-19.227 5.6719-28.957l-65.461-113.17c-5.5781-9.7148-17.461-13.773-27.68-9.5273l-82.957 34.34c-10.746 4.4492-23.133 2.2734-31.711-5.5781-42.445-38.801-91.781-67.32-146.65-84.75-11.086-3.5195-19.137-13.133-20.66-24.656l-11.766-88.918c-1.4297-11.039-10.863-19.297-21.973-19.297h-131.04c-11.109 0-20.543 8.2578-21.961 19.211l-11.777 89.004c-1.5234 11.523-9.5742 21.137-20.66 24.656-54.867 17.43-104.2 45.949-146.65 84.75-8.5781 7.8516-20.953 10.023-31.711 5.5781l-82.91-34.32c-10.254-4.2852-22.16-0.22266-27.668 9.4023l-65.578 113.37c-5.5195 9.6328-3.0703 22.082 5.7539 28.875l71.133 54.586c9.2578 7.0977 13.547 18.902 11.027 30.281-6.1289 27.711-9.2344 56.176-9.2344 84.605s3.1055 56.895 9.2344 84.598c2.5195 11.379-1.7695 23.184-11.027 30.281l-71.156 54.605c-8.8008 6.7734-11.25 19.227-5.6719 28.957l65.461 113.17c5.5781 9.7227 17.449 13.789 27.68 9.5273l82.957-34.34c3.7031-1.5352 7.6055-2.2812 11.473-2.2812zm286.8-62.039c-122.67 0-222.48-99.801-222.48-222.48s99.809-222.48 222.48-222.48 222.48 99.805 222.48 222.48-99.809 222.48-222.48 222.48zm0-384.96c-89.59 0-162.48 72.891-162.48 162.48s72.891 162.48 162.48 162.48 162.48-72.891 162.48-162.48-72.891-162.48-162.48-162.48z" fill="#2aff73"/>
</svg>
