<?xml version="1.0" encoding="UTF-8"?>
<svg width="1200pt" height="1200pt" version="1.1" viewBox="0 0 1200 1200" xmlns="http://www.w3.org/2000/svg">
 <path d="m123.96 683.64 448.54 448.22c17.934 17.645 46.195 17.645 63.48 0l446.64-446.28 2.2695-1.9375c46.828-46.852 80.504-102.03 96.555-162.66 15.402-57.414 14.77-119.04-5.7773-181.59-17.934-54.527-50.059-103.62-90.777-143.39-40.785-40.445-91.449-71.906-146.34-88.879-63.836-20.875-128.02-20.875-187.03-5.4727-53.273 14.109-102.66 41.09-146.97 77.012-43.977-35.922-93.68-62.902-146.32-77.012-59.645-16.035-123.19-15.402-187.66 5.1562-54.883 17.289-104.94 48.738-146.32 88.496-40.723 40.457-72.844 89.566-90.777 144.08-20.547 62.559-21.191 124.18-5.75 181.6 16.008 60.645 49.383 115.82 96.238 162.67zm-4.5234-316.05c13.504-40.102 37.227-77.629 68.043-107.8 31.426-30.5 69.297-53.895 110.35-67.055 46.879-15.059 93.68-15.375 137.34-3.8359 47.5 12.199 91.766 39.125 130.25 76.352l1.9258 1.3047-91.742 91.754c-10.906 10.246-10.906 27.613 0 37.871 10.258 10.602 27.586 10.602 38.48 0l143.73-144.37c35.289-29.855 74.77-51.652 116.8-62.27 43.66-11.855 89.816-11.539 136.7 3.2031 41.039 13.16 79.555 36.566 110.34 67.371 30.816 30.172 54.855 67.383 68.691 107.8h-0.67188c15.402 44.926 16.047 89.207 4.8281 129.96-11.883 44.598-37.555 85.977-73.477 122.25l-1.9258 1.9258-414.52 414.51-416.45-416.44c-35.934-36.266-61.594-77.656-73.449-122.25-11.25-40.734-10.617-85.016 4.7734-130.27z" fill="#2aff73"/>
</svg>
