<?xml version="1.0" encoding="UTF-8"?>
<svg width="1200pt" height="1200pt" version="1.1" viewBox="0 0 1200 1200" xmlns="http://www.w3.org/2000/svg">
 <path d="m830.2 949.19-11.891-51.938-48.297-209.98 162.28-141.52 40.125-34.973-53.055-4.7617-214.29-18.898-84.262-198.23-20.809-49.109-20.805 49.109-84.262 198.22-214.3 18.898-53.055 4.7617 40.125 34.973 162.28 141.52-48.297 209.98-11.891 51.938 45.625-27.383 184.57-110.87 184.57 110.87 45.625 27.383zm-68.062-93.754-150.54-90.48-11.594-6.9961-11.59 6.9922-150.54 90.48 39.383-171.29 2.9727-13.246-10.254-8.9297-132.41-115.48 174.91-15.477 13.523-1.1914 5.3516-12.5 68.652-161.76 68.656 161.77 5.3516 12.5 13.523 1.1914 174.91 15.477-132.41 115.48-10.254 8.9297 2.9727 13.246 39.383 171.29z" fill="#2aff73"/>
</svg>
