<?xml version="1.0" encoding="UTF-8"?>
<svg width="128pt" height="128pt" version="1.1" viewBox="0 0 128 128" xmlns="http://www.w3.org/2000/svg">
 <path d="m116.43 58.059c-0.17969-1.4844-1.5195-2.4336-2.9648-2.0391-3.7812 1.0352-7.9805 0.09375-10.949-2.875-0.93359-0.93359-1.6602-1.9961-2.1914-3.1211-0.55078-1.1719-1.9883-1.5312-3.1758-1.0156-5.0508 2.1992-11.141 1.2461-15.27-2.8867-4.1289-4.1289-5.0859-10.219-2.8867-15.27 0.51562-1.1836 0.15625-2.625-1.0156-3.1758-1.1289-0.53125-2.1914-1.2539-3.1211-2.1914-2.9688-2.9688-3.9102-7.1719-2.875-10.949 0.39453-1.4453-0.55469-2.7852-2.0391-2.9648-1.9492-0.23437-3.9297-0.37109-5.9414-0.37109-30.281-0.003907-54.605 25.473-52.699 56.164 1.6289 26.297 23.031 47.695 49.324 49.324 30.684 1.9062 56.172-22.422 56.172-52.695 0-2.0156-0.13672-3.9883-0.37109-5.9414zm-80.031 22.742c-3.3164 0-6-2.6836-6-6 0-3.3164 2.6836-6 6-6 3.3164 0 6 2.6836 6 6 0 3.3164-2.6836 6-6 6zm13.199-36c-3.9766 0-7.1992-3.2266-7.1992-7.1992 0-3.9766 3.2266-7.1992 7.1992-7.1992 3.9766 0 7.1992 3.2266 7.1992 7.1992 0 3.9766-3.2266 7.1992-7.1992 7.1992zm13.199 21.602c-3.3164 0-6-2.6836-6-6s2.6836-6 6-6 6 2.6836 6 6-2.6836 6-6 6zm8.3984 31.199c-3.9766 0-7.1992-3.2266-7.1992-7.1992 0-3.9766 3.2266-7.1992 7.1992-7.1992 3.9766 0 7.1992 3.2266 7.1992 7.1992 0 3.9766-3.2266 7.1992-7.1992 7.1992zm20.402-19.199c-3.3164 0-6-2.6836-6-6s2.6836-6 6-6 6 2.6836 6 6-2.6836 6-6 6z"/>
 <path d="m97.602 32.801c0 6.3984-9.6016 6.3984-9.6016 0 0-6.3984 9.6016-6.3984 9.6016 0z"/>
 <path d="m112 38.801c0 4.8008-7.1992 4.8008-7.1992 0s7.1992-4.8008 7.1992 0z"/>
 <path d="m102.4 19.598c0 4.8008-7.1992 4.8008-7.1992 0 0-4.8008 7.1992-4.8008 7.1992 0z"/>
</svg>
