<svg xmlns="http://www.w3.org/2000/svg" width="128pt" height="128pt" viewBox="0 0 128 128"><path fill="#2bff74" d="m78.914 57.711-1.453 6.258v-.004a14.339 14.339 0 0 0 10.082-2.895l-4.54-4.539a8.378 8.378 0 0 1-4.089 1.18zM40.215 122l38.484-9.164V92.539l-34.102 19.234zM15.164 49.301 6 87.785l10.227-4.383L35.46 49.3zM70.297 48.922a8.3 8.3 0 0 1 1.172-3.926l-4.54-4.539a14.6 14.6 0 0 0-2.952 8.844c0 .328 0 .66.035 1zM86.465 5.133A36.428 36.428 0 0 0 78.633 6L122 49.367A36.331 36.331 0 0 0 86.465 5.133z"/><path fill="#2ecc70" d="M54.762 23.648 20.324 84.695l10 10L51.972 73.05a2.108 2.108 0 0 1 2.977 0c.82.824.82 2.152 0 2.977L33.3 97.672l10 10 61.05-34.434a36.424 36.424 0 0 0 16.302-19.266L74.028 7.347a36.427 36.427 0 0 0-19.266 16.3zM103.938 49.3a25.243 25.243 0 0 1-25.239 25.239 25.23 25.23 0 0 1-17.844-7.395 25.228 25.228 0 0 1 0-35.692 25.241 25.241 0 0 1 17.844-7.39 25.281 25.281 0 0 1 17.84 7.398 25.279 25.279 0 0 1 7.399 17.84z"/><path fill="#2ecc70" d="M78.699 70.332a21.02 21.02 0 0 0 14.871-6.16 21.028 21.028 0 0 0 0-29.742c-3.941-3.946-9.293-6.16-14.871-6.16s-10.926 2.214-14.871 6.16a21.02 21.02 0 0 0-6.16 14.87 21.048 21.048 0 0 0 6.168 14.864 21.05 21.05 0 0 0 14.863 6.168zm13.398-7.676h.004a18.813 18.813 0 0 1-13.402 5.57 19.11 19.11 0 0 1-4.266-.496 2.081 2.081 0 0 1-1.312-.937 2.105 2.105 0 0 1-.266-1.59l2.38-10.242a2.111 2.111 0 0 1 2.522-1.574 4.111 4.111 0 0 0 3.93-1.129c.395-.398.93-.625 1.492-.625a1.91 1.91 0 0 1 1.493.613l7.437 7.438c.82.82.82 2.152 0 2.972zm-14.023-19.96 2.383-10.243.004-.004c.125-.543.46-1.015.937-1.308a2.077 2.077 0 0 1 1.586-.262 18.994 18.994 0 0 1 14.188 14.32 2.102 2.102 0 0 1-1.602 2.508L85.293 49.95l.004.004a2.098 2.098 0 0 1-2.5-1.59 4.214 4.214 0 0 0-3.133-3.144 2.116 2.116 0 0 1-1.312-.938 2.094 2.094 0 0 1-.262-1.586zm-1.488 6.6.004-.003a2.051 2.051 0 0 1 1.644-2.106 2.15 2.15 0 0 1 1.977.586c.508.52.718 1.262.55 1.97a2.283 2.283 0 0 1-2.07 1.66 2.193 2.193 0 0 1-2.09-2.11zM65.332 35.9l.004-.004c.82-.82 2.148-.82 2.968 0l7.438 7.437a2.095 2.095 0 0 1 0 2.98 4.181 4.181 0 0 0-1.25 2.99c0 .288.031.577.086.859a2.1 2.1 0 0 1-1.598 2.484l-10.27 2.242a2.103 2.103 0 0 1-2.508-1.613 19.114 19.114 0 0 1-.422-3.973 18.8 18.8 0 0 1 5.563-13.41z"/><path fill="#2ecc70" d="m86.164 45.457 6.293-1.375a14.823 14.823 0 0 0-8.398-8.48l-1.457 6.265a8.47 8.47 0 0 1 3.562 3.59z"/></svg>