<?xml version="1.0" encoding="UTF-8"?>
<svg width="1200pt" height="1200pt" version="1.1" viewBox="0 0 1200 1200" xmlns="http://www.w3.org/2000/svg">
 <path d="m1144.8 540-351.6-351.6c-32.398-32.398-86.398-32.398-118.8 0-32.398 32.398-32.398 86.398 0 118.8l207.6 208.8h-768c-46.801 0-84 37.199-84 84s37.199 84 84 84h768l-207.6 207.6c-32.398 32.398-32.398 86.398 0 118.8 16.801 16.801 38.398 25.199 60 25.199 21.602 0 43.199-8.3984 60-25.199l350.4-350.4c15.602-15.602 25.199-37.199 25.199-60s-8.3984-44.398-25.199-60z" fill="#2aff73"/>
</svg>
