<?xml version="1.0" encoding="UTF-8"?>
<svg width="1200pt" height="1200pt" version="1.1" viewBox="0 0 1200 1200" xmlns="http://www.w3.org/2000/svg">
 <path d="m746.39 971.86 6.5625-2.5781v-0.046875l6.5156-2.7188c11.016-4.7812 22.406-6.7031 33.562-5.7656 11.203 0.9375 22.125 4.6875 32.156 11.25l83.812 54.609c3 1.9219 6.4219 2.7188 9.6562 2.3906 3.0938-0.32812 6.1875-1.7812 8.7656-4.3594l97.266-97.219 0.9375-0.84375c1.9688-2.3438 3.1406-5.0625 3.4219-7.875 0.32812-3.2344-0.42188-6.6094-2.3906-9.6562l-54.656-83.812c-6.5156-10.031-10.312-20.953-11.25-32.156-0.9375-11.156 1.0312-22.594 5.8125-33.562l2.8125-6.5156h-0.046875l2.625-6.5156c4.4062-11.109 11.109-20.484 19.734-27.797 8.625-7.2656 19.031-12.328 30.75-14.812l97.875-20.672c3.4688-0.70312 6.4219-2.5781 8.3906-5.0625 1.9219-2.3906 3.0938-5.6719 3.0938-9.2812v-137.53c0-3.6562-1.1719-6.8906-3.0938-9.2812-2.0156-2.4844-4.9219-4.3125-8.3906-5.0625l-97.875-20.625c-11.719-2.4844-22.125-7.5469-30.75-14.812s-15.375-16.688-19.734-27.797l-2.625-6.5156-2.7188-6.5625c-4.7812-11.016-6.7031-22.406-5.7656-33.562 0.9375-11.203 4.6875-22.125 11.25-32.156l54.609-83.812c1.9219-3 2.7188-6.4219 2.3906-9.6562-0.32812-3.1875-1.7812-6.2812-4.2656-8.7656l-0.09375-0.09375-0.046875 0.09375-97.266-97.266c-2.5781-2.5781-5.6719-4.0312-8.7656-4.3594-3.2344-0.32812-6.6094 0.46875-9.6562 2.3906l-83.812 54.656c-10.031 6.5156-20.953 10.312-32.156 11.25-11.156 0.9375-22.547-0.98438-33.562-5.8125l-6.5156-2.7188-6.5625-2.6719c-11.109-4.4062-20.531-11.109-27.797-19.734s-12.328-19.031-14.812-30.75l-20.625-97.875c-0.70312-3.4688-2.5781-6.375-5.0625-8.3906-2.3906-1.9219-5.6719-3.0938-9.2812-3.0938h-137.53c-3.6562 0-6.8906 1.1719-9.2812 3.0938-2.4844 2.0156-4.3125 4.9219-5.0625 8.3906l-20.625 97.875c-2.4844 11.719-7.5469 22.125-14.812 30.75-7.3125 8.625-16.688 15.375-27.797 19.734l-7.875 3.1406-5.2031 2.25c-11.016 4.7812-22.406 6.7031-33.562 5.8125-11.203-0.9375-22.125-4.7344-32.156-11.25l-83.812-54.609c-3-1.9219-6.4219-2.7188-9.6562-2.3906-3.0938 0.32812-6.1875 1.7812-8.7656 4.3594l-97.266 97.266c-2.5781 2.5781-4.0312 5.6719-4.3594 8.7656-0.32812 3.2344 0.42188 6.6094 2.3906 9.6562l54.609 83.812c6.5625 10.031 10.312 20.953 11.25 32.156s-0.98438 22.594-5.7656 33.562l-2.7656 6.6094-2.625 6.4688c-4.4062 11.109-11.109 20.531-19.734 27.797s-19.031 12.328-30.75 14.812l-97.875 20.625c-3.4688 0.70312-6.4219 2.5781-8.3906 5.0625-1.9219 2.3906-3.0938 5.6719-3.0938 9.2812v137.53c0 3.6562 1.1719 6.8906 3.0938 9.2812 2.0156 2.4844 4.9219 4.3125 8.3906 5.0625l97.875 20.672c11.719 2.4844 22.125 7.5469 30.75 14.812 8.625 7.3125 15.375 16.688 19.734 27.797l2.625 6.5156 2.7188 6.5625c4.7812 11.016 6.7031 22.406 5.7656 33.562-0.9375 11.203-4.6875 22.125-11.25 32.156l-54.609 83.812c-1.9219 3-2.7188 6.4219-2.3906 9.6562 0.32812 3.1875 1.7812 6.2812 4.2656 8.7656l0.09375 0.09375 0.046875-0.09375 97.266 97.219c2.5781 2.5781 5.6719 4.0781 8.7656 4.3594 3.2344 0.32812 6.6094-0.42188 9.6562-2.3906l83.812-54.656c10.031-6.5156 20.953-10.312 32.156-11.25 11.156-0.9375 22.547 0.98438 33.562 5.8125l6.5156 2.7188 6.5625 2.6719c11.109 4.4062 20.531 11.109 27.797 19.734s12.328 19.031 14.812 30.75l20.625 97.875c0.70312 3.4688 2.5781 6.4219 5.0625 8.3906 2.3906 1.9219 5.6719 3.0938 9.2812 3.0938h137.53c3.6562 0 6.8906-1.1719 9.2812-3.0938 2.4844-2.0156 4.3125-4.9219 5.0625-8.3906l20.625-97.875c2.4844-11.719 7.5469-22.125 14.812-30.75s16.688-15.375 27.797-19.734zm-146.39-625.78c70.078 0 133.55 28.453 179.53 74.391 45.938 45.938 74.391 109.41 74.391 179.53 0 70.078-28.453 133.55-74.391 179.53-45.938 45.938-109.41 74.344-179.53 74.344-70.078 0-133.55-28.406-179.53-74.344-45.938-45.938-74.391-109.41-74.391-179.53 0-70.078 28.453-133.55 74.391-179.53 45.938-45.938 109.41-74.391 179.53-74.391zm140.63 113.25c-36-36-85.734-58.266-140.63-58.266-54.938 0-104.67 22.266-140.63 58.266-36 36-58.266 85.734-58.266 140.63 0 54.938 22.266 104.67 58.266 140.63 36 36 85.734 58.266 140.63 58.266 54.938 0 104.67-22.266 140.63-58.266 36-36 58.266-85.734 58.266-140.63 0-54.938-22.266-104.67-58.266-140.63zm33.281 560.58-7.5469 3.0469c-2.4375 0.98438-4.4531 2.3438-5.8594 4.0781-1.4531 1.7344-2.4844 3.8906-3.0469 6.4219l-20.672 97.875c-3.4219 16.219-12.141 30.047-24.141 39.797-12.141 9.8438-27.375 15.562-43.875 15.562h-137.53c-16.453 0-31.734-5.7188-43.875-15.562-12.047-9.75-20.719-23.531-24.141-39.797l-20.672-97.875c-0.5625-2.5781-1.5938-4.7344-3.0469-6.4219s-3.4219-3.0938-5.8594-4.0781l-7.6406-3.0938-7.3594-3.1875c-2.3906-1.0312-4.7812-1.4531-7.125-1.2656-2.2969 0.1875-4.5938 1.0312-6.7969 2.3906l-83.812 54.656c-13.875 9-29.719 12.609-45.094 11.016-15.516-1.6406-30.375-8.3906-42.047-20.062l-97.219-97.219 0.046875-0.09375c-11.719-11.719-18.516-26.578-20.109-42-1.5938-15.375 1.9688-31.266 11.016-45.094l54.609-83.812c1.4062-2.2031 2.25-4.5 2.4375-6.7969 0.1875-2.3438-0.23438-4.7344-1.2656-7.125l-3.1875-7.4062-3.0469-7.5938c-0.98438-2.4375-2.3438-4.4531-4.0781-5.8594-1.7344-1.4531-3.8906-2.4844-6.4219-3.0469l-97.875-20.672c-16.219-3.4219-30.047-12.141-39.797-24.141-9.8438-12.141-15.562-27.422-15.562-43.875v-137.53c0-16.453 5.7188-31.734 15.562-43.875 9.75-12.047 23.531-20.719 39.797-24.141l97.875-20.672c2.5781-0.5625 4.7344-1.5938 6.4219-3.0469s3.0938-3.4219 4.0781-5.8594l3.0469-7.5469 3.1875-7.5c1.0312-2.3906 1.4531-4.7812 1.2656-7.125-0.23438-2.2969-1.0312-4.5938-2.4375-6.7969l-54.609-83.812c-9-13.875-12.609-29.719-11.016-45.094 1.6406-15.516 8.3906-30.375 20.062-42.047l97.219-97.219c11.672-11.672 26.531-18.422 42.047-20.062 15.375-1.5938 31.266 1.9688 45.094 11.016l83.812 54.609c2.2031 1.4531 4.5 2.25 6.7969 2.4375 2.3438 0.1875 4.7344-0.23438 7.125-1.2656l7.4062-3.1875 7.5938-3.0469c2.4375-0.98438 4.4531-2.3438 5.8594-4.0781 1.4531-1.7344 2.4844-3.8906 3.0469-6.4219l20.672-97.875c3.4219-16.219 12.141-30.047 24.141-39.797 12.141-9.8438 27.422-15.562 43.875-15.562h137.53c16.453 0 31.734 5.7188 43.875 15.562 12.047 9.75 20.719 23.531 24.141 39.797l20.672 97.875c0.5625 2.5781 1.5938 4.7344 3.0469 6.4219s3.4219 3.0938 5.8594 4.0781l7.6406 3.0469 7.3594 3.1875c2.3906 1.0312 4.7812 1.4531 7.125 1.2656 2.2969-0.1875 4.5938-1.0312 6.7969-2.4375l83.812-54.609c13.875-9.0469 29.719-12.609 45.094-11.016 15.516 1.6406 30.375 8.3906 42.047 20.062l97.219 97.219-0.046875 0.09375c11.719 11.719 18.516 26.578 20.109 41.953s-1.9688 31.266-11.016 45.094l-54.609 83.812c-1.4531 2.2031-2.25 4.5-2.4375 6.7969-0.1875 2.3438 0.23438 4.7344 1.2656 7.125l3.1875 7.4062 3.0469 7.5938c0.98438 2.4375 2.3438 4.4062 4.0781 5.8594s3.8906 2.4844 6.4219 3.0469l97.875 20.672c16.219 3.4219 30.047 12.141 39.797 24.141 9.8438 12.141 15.562 27.375 15.562 43.875v137.53c0 16.453-5.7188 31.734-15.562 43.875-9.75 12.047-23.531 20.719-39.797 24.141l-97.875 20.672c-2.5781 0.5625-4.7344 1.5938-6.4219 3-1.6875 1.4531-3.0938 3.4688-4.0781 5.8594l-3.0469 7.5938h-0.046875l-3.1406 7.4062c-1.0312 2.3906-1.4531 4.7812-1.2656 7.125 0.1875 2.2969 1.0312 4.5938 2.4375 6.7969l54.609 83.812c9 13.875 12.609 29.719 11.016 45.094-1.5 14.578-7.6875 28.641-18.234 40.078-0.5625 0.70312-1.1719 1.3125-1.7812 1.9688l-97.219 97.219c-11.672 11.672-26.531 18.422-42.047 20.062-15.375 1.5938-31.266-1.9688-45.094-11.016l-83.812-54.609c-2.2031-1.4531-4.5-2.25-6.7969-2.4375-2.3438-0.1875-4.7344 0.23438-7.125 1.2656l-7.3594 3.1875v-0.046875l-0.09375 0.046875z" fill="#2aff73"/>
</svg>
