<?xml version="1.0" encoding="UTF-8"?>
<svg width="1200pt" height="1200pt" version="1.1" viewBox="0 0 1200 1200" xmlns="http://www.w3.org/2000/svg">
 <path d="m462.13 343.31c-38.348 0-76.492 15.156-105.56 45.578-58.141 60.844-58.309 158.5-0.23438 219.39l232.62 243.95c5.6328 5.9531 16.332 5.9531 21.965 0 77.598-81.207 155.02-162.51 232.62-243.72 58.141-60.848 58.141-158.55 0-219.39s-153.22-60.848-211.36 0l-32.117 33.297-32.117-33.535c-31.344-32.93-70.18-45.738-105.8-45.578zm0 29.758c30.223 0 60.602 12.277 84.074 36.84l42.98 45.105c5.6328 5.9531 16.332 5.9531 21.965 0l42.746-44.871c46.945-49.129 120.96-49.129 167.91 0 46.945 49.129 46.945 128.46 0 177.59-73.906 77.348-147.85 154.8-221.75 232.14l-221.75-232.38c-46.914-49.188-46.945-128.46 0-177.59 23.473-24.562 53.617-36.84 83.836-36.84z" fill="#2aff73"/>
</svg>
