<?xml version="1.0" encoding="UTF-8"?>
<svg width="1200pt" height="1200pt" version="1.1" viewBox="0 0 1200 1200" xmlns="http://www.w3.org/2000/svg">
 <path d="m670.6 104.44 127.5 271.4 297.74 37.453c66.234 8.2969 91.547 89.672 43.828 134.39l-218.9 205.31 56.438 294.79c12.469 65.109-56.766 114.7-114.28 83.062l-262.92-144.74-262.92 144.74c-13.125 7.2188-28.312 10.688-42.469 9.6094-45.984-2.8594-80.812-45.422-71.766-92.672l56.438-294.79-218.95-205.31c-47.672-44.719-22.406-126.1 43.828-134.39l297.74-37.406 127.5-271.45c28.219-60.047 112.88-60.141 141.19 0zm55.219 333.42-125.81-267.79-124.18 264.32c-5.8125 15.656-19.922 27.562-37.641 29.719l-293.26 36.844 214.36 201.1c11.953 10.406 18.234 26.719 15.047 43.406l-55.594 290.48 258.52-142.31c13.406-7.6406 30.375-8.2969 44.859-0.32812l259.13 142.64-55.594-290.48h0.046875c-2.8594-14.906 1.7812-30.938 13.641-42.094l215.72-202.31-293.26-36.844 0.046874-0.14062c-15.188-1.9688-29.109-11.344-36.047-26.203z" fill="#2aff73" fill-rule="evenodd"/>
</svg>
